<svg width="29" height="29" viewBox="0 0 29 29" version="1.1" xmlns="http://www.w3.org/2000/svg" xmlns:xlink="http://www.w3.org/1999/xlink" xmlns:figma="http://www.figma.com/figma/ns">
<title>Group</title>
<desc>Created using Figma</desc>
<g id="Canvas" transform="translate(-102 987)" figma:type="canvas">
<g id="Group" style="mix-blend-mode:normal;" filter="url(#filter0_d)" figma:type="frame">
<g id="loupe" style="mix-blend-mode:normal;" figma:type="frame">
<g id="Group" style="mix-blend-mode:normal;" figma:type="frame">
<g id="Group" style="mix-blend-mode:normal;" figma:type="frame">
<g id="Vector" style="mix-blend-mode:normal;" figma:type="vector">
<use xlink:href="#path0_fill" transform="matrix(-1 0 0 1 126.62 -986.57)" fill="#FFFFFF" style="mix-blend-mode:normal;"/>
</g>
</g>
</g>
<mask id="mask0_alpha" mask-type="alpha">
<path d="M 118.898 -984.341L 108.852 -984.341L 108.852 -974.295L 118.898 -974.295L 118.898 -984.341Z" fill="#FFFFFF"/>
</mask>
<g id="Group" style="mix-blend-mode:normal;" mask="url(#mask0_alpha)" figma:type="frame">
</g>
<g id="Group" style="mix-blend-mode:normal;" figma:type="frame">
<g id="Group" style="mix-blend-mode:normal;" figma:type="frame">
<g id="Vector" style="mix-blend-mode:normal;" figma:type="vector">
<use xlink:href="#path1_fill" transform="matrix(-1 0 0 1 115.942 -984.026)" fill="#FFFFFF" style="mix-blend-mode:normal;"/>
</g>
</g>
</g>
<mask id="mask1_alpha" mask-type="alpha">
<path d="M 126.62 -986.572L 122.714 -986.572L 122.714 -982.665L 126.62 -982.665L 126.62 -986.572Z" fill="#FFFFFF"/>
</mask>
<g id="Group" style="mix-blend-mode:normal;" mask="url(#mask1_alpha)" figma:type="frame">
</g>
<mask id="mask2_alpha" mask-type="alpha">
<path d="M 126.62 -986.572L 122.714 -986.572L 122.714 -982.665L 126.62 -982.665L 126.62 -986.572Z" fill="#FFFFFF"/>
</mask>
<g id="Group" style="mix-blend-mode:normal;" mask="url(#mask2_alpha)" figma:type="frame">
</g>
<mask id="mask3_alpha" mask-type="alpha">
<path d="M 126.62 -986.572L 122.714 -986.572L 122.714 -982.665L 126.62 -982.665L 126.62 -986.572Z" fill="#FFFFFF"/>
</mask>
<g id="Group" style="mix-blend-mode:normal;" mask="url(#mask3_alpha)" figma:type="frame">
</g>
<mask id="mask4_alpha" mask-type="alpha">
<path d="M 126.62 -986.572L 122.714 -986.572L 122.714 -982.665L 126.62 -982.665L 126.62 -986.572Z" fill="#FFFFFF"/>
</mask>
<g id="Group" style="mix-blend-mode:normal;" mask="url(#mask4_alpha)" figma:type="frame">
</g>
<mask id="mask5_alpha" mask-type="alpha">
<path d="M 126.62 -986.572L 122.714 -986.572L 122.714 -982.665L 126.62 -982.665L 126.62 -986.572Z" fill="#FFFFFF"/>
</mask>
<g id="Group" style="mix-blend-mode:normal;" mask="url(#mask5_alpha)" figma:type="frame">
</g>
<mask id="mask6_alpha" mask-type="alpha">
<path d="M 126.62 -986.572L 122.714 -986.572L 122.714 -982.665L 126.62 -982.665L 126.62 -986.572Z" fill="#FFFFFF"/>
</mask>
<g id="Group" style="mix-blend-mode:normal;" mask="url(#mask6_alpha)" figma:type="frame">
</g>
<mask id="mask7_alpha" mask-type="alpha">
<path d="M 126.62 -986.572L 122.714 -986.572L 122.714 -982.665L 126.62 -982.665L 126.62 -986.572Z" fill="#FFFFFF"/>
</mask>
<g id="Group" style="mix-blend-mode:normal;" mask="url(#mask7_alpha)" figma:type="frame">
</g>
<mask id="mask8_alpha" mask-type="alpha">
<path d="M 126.62 -986.572L 122.714 -986.572L 122.714 -982.665L 126.62 -982.665L 126.62 -986.572Z" fill="#FFFFFF"/>
</mask>
<g id="Group" style="mix-blend-mode:normal;" mask="url(#mask8_alpha)" figma:type="frame">
</g>
<mask id="mask9_alpha" mask-type="alpha">
<path d="M 126.62 -986.572L 122.714 -986.572L 122.714 -982.665L 126.62 -982.665L 126.62 -986.572Z" fill="#FFFFFF"/>
</mask>
<g id="Group" style="mix-blend-mode:normal;" mask="url(#mask9_alpha)" figma:type="frame">
</g>
<mask id="mask10_alpha" mask-type="alpha">
<path d="M 126.62 -986.572L 122.714 -986.572L 122.714 -982.665L 126.62 -982.665L 126.62 -986.572Z" fill="#FFFFFF"/>
</mask>
<g id="Group" style="mix-blend-mode:normal;" mask="url(#mask10_alpha)" figma:type="frame">
</g>
<mask id="mask11_alpha" mask-type="alpha">
<path d="M 126.62 -986.572L 122.714 -986.572L 122.714 -982.665L 126.62 -982.665L 126.62 -986.572Z" fill="#FFFFFF"/>
</mask>
<g id="Group" style="mix-blend-mode:normal;" mask="url(#mask11_alpha)" figma:type="frame">
</g>
<mask id="mask12_alpha" mask-type="alpha">
<path d="M 126.62 -986.572L 122.714 -986.572L 122.714 -982.665L 126.62 -982.665L 126.62 -986.572Z" fill="#FFFFFF"/>
</mask>
<g id="Group" style="mix-blend-mode:normal;" mask="url(#mask12_alpha)" figma:type="frame">
</g>
<mask id="mask13_alpha" mask-type="alpha">
<path d="M 126.62 -986.572L 122.714 -986.572L 122.714 -982.665L 126.62 -982.665L 126.62 -986.572Z" fill="#FFFFFF"/>
</mask>
<g id="Group" style="mix-blend-mode:normal;" mask="url(#mask13_alpha)" figma:type="frame">
</g>
<mask id="mask14_alpha" mask-type="alpha">
<path d="M 126.62 -986.572L 122.714 -986.572L 122.714 -982.665L 126.62 -982.665L 126.62 -986.572Z" fill="#FFFFFF"/>
</mask>
<g id="Group" style="mix-blend-mode:normal;" mask="url(#mask14_alpha)" figma:type="frame">
</g>
<mask id="mask15_alpha" mask-type="alpha">
<path d="M 126.62 -986.572L 122.714 -986.572L 122.714 -982.665L 126.62 -982.665L 126.62 -986.572Z" fill="#FFFFFF"/>
</mask>
<g id="Group" style="mix-blend-mode:normal;" mask="url(#mask15_alpha)" figma:type="frame">
</g>
</g>
</g>
</g>
<defs>
<filter id="filter0_d" filterUnits="userSpaceOnUse" x="102" y="-987" width="29" height="29" color-interpolation-filters="sRGB">
<feFlood flood-opacity="0" result="BackgroundImageFix"/>
<desc>type="dropShadow" x="0" y="4" size="4" spread="0" color="0,0,0,0.25" blend="normal"</desc>
<feColorMatrix in="SourceAlpha" type="matrix" values="0 0 0 0 0 0 0 0 0 0 0 0 0 0 0 0 0 0 255 0"/>
<feOffset dx="0" dy="4"/>
<feGaussianBlur stdDeviation="2"/>
<feColorMatrix type="matrix" values="0 0 0 0 0 0 0 0 0 0 0 0 0 0 0 0 0 0 0.25 0"/>
<feBlend mode="normal" in2="BackgroundImageFix" result="effect1_dropShadow"/>
<feBlend mode="normal" in="SourceGraphic" in2="effect1_dropShadow" result="shape"/>
</filter>
<path id="path0_fill" d="M 17.8751 2.12173C 15.0463 -0.707242 10.4436 -0.707242 7.61488 2.12173C 6.24453 3.49211 5.48992 5.3142 5.48992 7.25224C 5.48992 9.01773 6.11645 10.6868 7.26387 12.006L 6.39984 12.8701L 5.5193 11.9895C 5.42281 11.893 5.29191 11.8388 5.15547 11.8388C 5.01902 11.8388 4.88812 11.893 4.79164 11.9895L 0.666211 16.1153C 0.236602 16.5449 0 17.1161 0 17.7236C 0 18.3312 0.236602 18.9024 0.666133 19.332C 1.09574 19.7616 1.66688 19.9982 2.27434 19.9982C 2.8818 19.9982 3.45301 19.7616 3.88254 19.332L 8.00801 15.2063C 8.10449 15.1098 8.15871 14.9789 8.15871 14.8424C 8.15871 14.706 8.10449 14.5751 8.00801 14.4786L 7.12746 13.598L 7.99176 12.7336C 9.35086 13.914 11.0478 14.5045 12.745 14.5045C 14.6028 14.5045 16.4607 13.7972 17.8751 12.3828C 19.2453 11.0124 20 9.19036 20 7.25232C 20 5.31416 19.2454 3.49211 17.8751 2.12173ZM 3.15488 18.6043C 2.91969 18.8395 2.60699 18.969 2.27434 18.969C 1.94172 18.969 1.62898 18.8394 1.39379 18.6042C 1.15863 18.369 1.02906 18.0563 1.02906 17.7237C 1.02906 17.3911 1.15863 17.0783 1.39383 16.8431L 3.69594 14.5408L 5.45703 16.3019L 3.15488 18.6043ZM 6.18477 15.5742L 4.42367 13.8129L 5.15547 13.0811L 6.91656 14.8424L 6.18477 15.5742ZM 17.1474 11.655C 14.7199 14.0828 10.7701 14.0828 8.34258 11.655C 7.16664 10.479 6.51902 8.91542 6.51902 7.25224C 6.51902 5.58907 7.16664 4.02551 8.34258 2.84952C 9.55633 1.63567 11.1507 1.02871 12.745 1.02871C 14.3393 1.02871 15.9337 1.6356 17.1474 2.84952C 18.3234 4.02551 18.971 5.58911 18.971 7.25224C 18.971 8.91538 18.3233 10.479 17.1474 11.655Z"/>
<path id="path1_fill" d="M 3.98273 0.792396C 2.92617 -0.264132 1.20723 -0.264132 0.150703 0.792396C -0.050234 0.993349 -0.050234 1.31916 0.150703 1.52019C 0.351641 1.72114 0.677422 1.72114 0.878438 1.52019C 1.53359 0.864901 2.59984 0.864901 3.25508 1.52019C 3.35559 1.6207 3.48723 1.6709 3.61891 1.6709C 3.75059 1.6709 3.88231 1.62066 3.98273 1.52019C 4.18367 1.31923 4.18367 0.993388 3.98273 0.792396Z"/>
</defs>
</svg>
